<?xml version="1.0" encoding="utf-8"?>
<!-- Generator: Adobe Illustrator 21.1.0, SVG Export Plug-In . SVG Version: 6.00 Build 0)  -->
<svg version="1.1" id="Capa_1" xmlns="http://www.w3.org/2000/svg" xmlns:xlink="http://www.w3.org/1999/xlink" x="0px" y="0px"
	 viewBox="0 0 612 650" style="enable-background:new 0 0 612 650;" xml:space="preserve">
<g>
	<g id="New_x5F_Post">
		<g>
			<path d="M545.1,286.9c-15.9,0-28.7,12.9-28.7,28.7v239.1h-459v-459h239.1c15.9,0,28.7-12.9,28.7-28.7s-12.8-28.7-28.7-28.7H38.2
				C17.1,38.2,0,55.4,0,76.5v497.2C0,594.9,17.1,612,38.2,612h497.2c21.1,0,38.2-17.1,38.2-38.2V315.6
				C573.8,299.7,560.9,286.9,545.1,286.9z M605.3,88.9L523,6.7C518.6,2.2,512.7,0,506.8,0s-11.7,2.2-16.2,6.7L172.1,325.1v114.8
				h114.8l318.5-318.5c4.5-4.5,6.7-10.4,6.7-16.2C612,99.3,609.8,93.4,605.3,88.9z M267.8,382.5h-38.2v-38.2L506.8,66.9l38.2,38.2
				L267.8,382.5z"/>
		</g>
	</g>
</g>
</svg>
