<?xml version="1.0" encoding="UTF-8"?><!DOCTYPE svg PUBLIC "-//W3C//DTD SVG 1.1//EN" "http://www.w3.org/Graphics/SVG/1.1/DTD/svg11.dtd"><svg xmlns="http://www.w3.org/2000/svg"><symbol id="icon-attention" viewBox="0 0 246.027 246.027">
    <path d="M242.751 196.508l-98.814-171.15c-4.367-7.564-12.189-12.081-20.924-12.081s-16.557 4.516-20.924 12.081L3.276 196.508c-4.368 7.564-4.368 16.596 0 24.161S15.465 232.75 24.2 232.75h197.629c8.734 0 16.556-4.516 20.923-12.08 4.367-7.565 4.366-16.597-.001-24.162zm-119.737 8.398c-8.672 0-15.727-7.055-15.727-15.727 0-8.671 7.055-15.726 15.727-15.726s15.727 7.055 15.727 15.726c-.001 8.673-7.056 15.727-15.727 15.727zm15.833-67.226c0 8.73-7.103 15.833-15.833 15.833s-15.833-7.103-15.833-15.833V65.013a7.5 7.5 0 0 1 7.5-7.5h16.667a7.5 7.5 0 0 1 7.5 7.5v72.667z"/>
</symbol><symbol id="icon-close" viewBox="0 0 21.9 21.9">
    <path d="M14.1 11.3c-.2-.2-.2-.5 0-.7l7.5-7.5c.2-.2.3-.5.3-.7s-.1-.5-.3-.7L20.2.3c-.2-.2-.5-.3-.7-.3-.3 0-.5.1-.7.3l-7.5 7.5c-.2.2-.5.2-.7 0L3.1.3C2.9.1 2.6 0 2.4 0s-.5.1-.7.3L.3 1.7c-.2.2-.3.5-.3.7s.1.5.3.7l7.5 7.5c.2.2.2.5 0 .7L.3 18.8c-.2.2-.3.5-.3.7s.1.5.3.7l1.4 1.4c.2.2.5.3.7.3s.5-.1.7-.3l7.5-7.5c.2-.2.5-.2.7 0l7.5 7.5c.2.2.5.3.7.3s.5-.1.7-.3l1.4-1.4c.2-.2.3-.5.3-.7s-.1-.5-.3-.7l-7.5-7.5z"/>
</symbol><symbol id="icon-down" viewBox="0 0 306 188.7">
    <path d="M306 35.7L270.3 0 153 117.3 35.7 0 0 35.7l153 153z"/>
</symbol><symbol id="icon-edit" viewBox="0 0 612 650">
    <path d="M545.1 286.9c-15.9 0-28.7 12.9-28.7 28.7v239.1h-459v-459h239.1c15.9 0 28.7-12.9 28.7-28.7s-12.8-28.7-28.7-28.7H38.2C17.1 38.2 0 55.4 0 76.5v497.2C0 594.9 17.1 612 38.2 612h497.2c21.1 0 38.2-17.1 38.2-38.2V315.6c.2-15.9-12.7-28.7-28.5-28.7zm60.2-198L523 6.7C518.6 2.2 512.7 0 506.8 0s-11.7 2.2-16.2 6.7L172.1 325.1v114.8h114.8l318.5-318.5c4.5-4.5 6.7-10.4 6.7-16.2-.1-5.9-2.3-11.8-6.8-16.3zM267.8 382.5h-38.2v-38.2L506.8 66.9l38.2 38.2-277.2 277.4z"/>
</symbol><symbol id="icon-left" viewBox="0 0 188.7 306">
    <path d="M153 306l35.7-35.7L71.4 153 188.7 35.7 153 0 0 153z"/>
</symbol><symbol id="icon-right" viewBox="0 0 188.7 306">
    <path d="M35.7 0L0 35.7 117.3 153 0 270.3 35.7 306l153-153z"/>
</symbol></svg>